<svg width="32" height="32" viewBox="0 0 32 32" fill="none" xmlns="http://www.w3.org/2000/svg">
<g clip-path="url(#clip0_221_1948)">
<mask id="mask0_221_1948" style="mask-type:luminance" maskUnits="userSpaceOnUse" x="0" y="0" width="32" height="32">
<path d="M32 0H0V32H32V0Z" fill="white"/>
</mask>
<g mask="url(#mask0_221_1948)">
<path d="M16.0013 28.3327C22.8128 28.3327 28.3346 22.8108 28.3346 15.9993C28.3346 9.18784 22.8128 3.66602 16.0013 3.66602C9.18979 3.66602 3.66797 9.18784 3.66797 15.9993C3.66797 22.8108 9.18979 28.3327 16.0013 28.3327Z" stroke="#F3805B" stroke-width="1.5" stroke-linecap="round" stroke-linejoin="round"/>
<path d="M8.77531 17.6392C8.38479 17.2486 8.38479 16.6154 8.77531 16.2249L12.2202 12.7801C12.7203 12.28 13.3985 11.999 14.1058 11.999H17.8966C18.6038 11.999 19.2822 12.28 19.7822 12.7801L23.2272 16.2249C23.6177 16.6154 23.6177 17.2486 23.2272 17.6392C22.8366 18.0297 22.2034 18.0297 21.8129 17.6392L19.5702 15.3965C19.3602 15.1865 19.0012 15.3352 19.0012 15.6322V24.3324C19.0012 24.8846 18.5534 25.3324 18.0012 25.3324C17.4489 25.3324 17.0012 24.8846 17.0012 24.3324V18.999C17.0012 18.4468 16.5534 17.999 16.0012 17.999C15.4489 17.999 15.0012 18.4468 15.0012 18.999V24.3324C15.0012 24.8846 14.5534 25.3324 14.0012 25.3324C13.4489 25.3324 13.0012 24.8846 13.0012 24.3324L13.0012 15.6322C13.0012 15.3353 12.6422 15.1865 12.4322 15.3965L10.1895 17.6392C9.79901 18.0297 9.16585 18.0297 8.77531 17.6392Z" fill="#F3805B"/>
<path d="M17.6693 8.33268C17.6693 7.41221 16.9231 6.66602 16.0026 6.66602C15.0821 6.66602 14.3359 7.41221 14.3359 8.33268V8.99935C14.3359 9.91982 15.0821 10.666 16.0026 10.666C16.9231 10.666 17.6693 9.91982 17.6693 8.99935V8.33268Z" fill="#F3805B"/>
</g>
</g>
<defs>
<clipPath id="clip0_221_1948">
<rect width="32" height="32" fill="white"/>
</clipPath>
</defs>
</svg>
