<svg width="32" height="32" viewBox="0 0 32 32" fill="none" xmlns="http://www.w3.org/2000/svg">
<mask id="mask0_221_1652" style="mask-type:luminance" maskUnits="userSpaceOnUse" x="0" y="0" width="32" height="32">
<path d="M31.3596 0H0.639648V32H31.3596V0Z" fill="white"/>
</mask>
<g mask="url(#mask0_221_1652)">
<path d="M11.8392 6.33331H20.1592C24.396 6.33331 27.8392 9.91998 27.8392 14.3333V17.6666C27.8392 22.08 24.396 25.6666 20.1592 25.6666H4.15918V14.3333C4.15918 9.91998 7.60238 6.33331 11.8392 6.33331Z" stroke="#F3805B" stroke-width="1.5" stroke-linecap="round" stroke-linejoin="round"/>
<path d="M10.8796 17.3333C11.5865 17.3333 12.1596 16.7363 12.1596 16C12.1596 15.2636 11.5865 14.6666 10.8796 14.6666C10.1727 14.6666 9.59961 15.2636 9.59961 16C9.59961 16.7363 10.1727 17.3333 10.8796 17.3333Z" fill="#F3805B"/>
<path d="M17.2787 16C17.2787 16.7364 16.7057 17.3333 15.9987 17.3333C15.2918 17.3333 14.7188 16.7364 14.7188 16C14.7188 15.2636 15.2918 14.6666 15.9987 14.6666C16.7057 14.6666 17.2787 15.2636 17.2787 16Z" fill="#F3805B"/>
<path d="M21.1189 17.3333C21.8258 17.3333 22.3989 16.7363 22.3989 16C22.3989 15.2636 21.8258 14.6666 21.1189 14.6666C20.4119 14.6666 19.8389 15.2636 19.8389 16C19.8389 16.7363 20.4119 17.3333 21.1189 17.3333Z" fill="#F3805B"/>
</g>
</svg>
