<svg width="32" height="32" viewBox="0 0 32 32" fill="none" xmlns="http://www.w3.org/2000/svg">
<g clip-path="url(#clip0_221_1664)">
<mask id="mask0_221_1664" style="mask-type:luminance" maskUnits="userSpaceOnUse" x="0" y="0" width="32" height="32">
<path d="M0 0H32V32H0V0Z" fill="white"/>
</mask>
<g mask="url(#mask0_221_1664)">
<mask id="mask1_221_1664" style="mask-type:luminance" maskUnits="userSpaceOnUse" x="0" y="0" width="32" height="32">
<path d="M0 0H32V32H0V0Z" fill="white"/>
</mask>
<g mask="url(#mask1_221_1664)">
<path d="M25.6664 28.0016H6.33302C5.04553 28.0016 3.99805 26.9541 3.99805 25.6666V6.3332C3.99805 5.04571 5.04553 3.99829 6.33302 3.99829H25.6664C26.9539 3.99829 28.0014 5.04571 28.0014 6.3332V25.6666C28.0014 26.9541 26.9539 28.0016 25.6664 28.0016ZM6.33302 6.00149C6.24507 6.00159 6.16075 6.03657 6.09856 6.09876C6.03636 6.16094 6.00137 6.24525 6.00125 6.3332V25.6666C6.00135 25.7546 6.03634 25.8389 6.09853 25.9011C6.16073 25.9633 6.24506 25.9983 6.33302 25.9984H25.6664C25.7544 25.9983 25.8387 25.9633 25.9009 25.9011C25.9631 25.8389 25.9981 25.7546 25.9982 25.6666V6.3332C25.9981 6.24525 25.9631 6.16094 25.9009 6.09876C25.8387 6.03657 25.7543 6.00159 25.6664 6.00149H6.33302Z" fill="white"/>
<mask id="mask2_221_1664" style="mask-type:luminance" maskUnits="userSpaceOnUse" x="0" y="0" width="32" height="32">
<path d="M0 0H32V32H0V0Z" fill="white"/>
</mask>
<g mask="url(#mask2_221_1664)">
<path d="M18.6664 16H15.9997C13.973 16 12.333 14.3601 12.333 12.3334V11.6667C12.333 9.64 13.973 8 15.9997 8C18.0264 8 19.6664 9.64 19.6664 11.6667V15C19.6664 15.5467 19.2131 16 18.6664 16ZM15.9997 10C15.0797 10 14.333 10.7467 14.333 11.6667V12.3334C14.333 13.2534 15.0797 14 15.9997 14H17.6664V11.6667C17.6664 10.7467 16.9197 10 15.9997 10ZM21.6664 24H10.333C9.78632 24 9.33301 23.5467 9.33301 23V22.3334C9.33301 19.5734 11.573 17.3333 14.333 17.3333H17.6664C20.4264 17.3333 22.6664 19.5734 22.6664 22.3334V23C22.6664 23.5467 22.2131 24 21.6664 24ZM11.3464 22H20.6397C20.4797 20.5067 19.1997 19.3333 17.653 19.3333H14.3197C12.7864 19.3333 11.5197 20.5067 11.3464 22Z" fill="white"/>
</g>
</g>
</g>
</g>
<defs>
<clipPath id="clip0_221_1664">
<rect width="32" height="32" fill="white"/>
</clipPath>
</defs>
</svg>
