<svg width="32" height="32" viewBox="0 0 32 32" fill="none" xmlns="http://www.w3.org/2000/svg">
<g clip-path="url(#clip0_221_1607)">
<mask id="mask0_221_1607" style="mask-type:luminance" maskUnits="userSpaceOnUse" x="0" y="0" width="32" height="32">
<path d="M32 0H0V32H32V0Z" fill="white"/>
</mask>
<g mask="url(#mask0_221_1607)">
<path d="M22.3337 18.0001C22.3337 19.7467 23.747 21.1734 25.507 21.1734H27.0003V25.6667C27.0003 26.4001 26.4003 27.0001 25.667 27.0001H21.1603V25.4934C21.1603 23.7334 19.7603 22.3334 18.0003 22.3334C16.2537 22.3334 14.827 23.7467 14.827 25.4934V27.0001H10.3337C9.60033 27.0001 9.00033 26.4001 9.00033 25.6667V21.6667H7.33366C5.30699 21.6667 3.66699 20.0267 3.66699 18.0001C3.66699 15.9734 5.30699 14.3334 7.33366 14.3334H9.00033V10.3334C9.00033 9.60008 9.60033 9.00008 10.3337 9.00008H14.3337V7.33341C14.3337 5.30675 15.9737 3.66675 18.0003 3.66675C20.027 3.66675 21.667 5.30675 21.667 7.33341V9.00008H25.667C26.4003 9.00008 27.0003 9.60008 27.0003 10.3334V14.8267H25.507C23.7769 14.8267 22.3337 16.2705 22.3337 18.0001Z" stroke="#F3805B" stroke-width="1.5" stroke-linecap="round" stroke-linejoin="round"/>
</g>
</g>
<defs>
<clipPath id="clip0_221_1607">
<rect width="32" height="32" fill="white"/>
</clipPath>
</defs>
</svg>
