<svg width="32" height="32" viewBox="0 0 32 32" fill="none" xmlns="http://www.w3.org/2000/svg">
<mask id="mask0_221_1615" style="mask-type:luminance" maskUnits="userSpaceOnUse" x="0" y="0" width="32" height="32">
<path d="M31.3596 0H0.639648V32H31.3596V0Z" fill="white"/>
</mask>
<g mask="url(#mask0_221_1615)">
<path d="M15.9988 26.9999C15.9988 26.9999 8.56543 18.983 6.40868 16.6966C4.25193 14.4102 4.2655 10.3345 6.43581 8.06225C8.60612 5.79005 12.1465 5.77585 14.3303 8.03385L14.3846 8.09065C14.9543 8.68711 15.3748 9.39717 15.6325 10.1498C15.8903 10.8031 15.9988 11.0161 15.9988 11.0161C15.9988 11.0161 16.1072 10.8173 16.3514 10.1498C16.6362 9.38297 17.0568 8.67291 17.64 8.04805C19.8239 5.76165 23.3777 5.76165 25.5617 8.04805C27.7455 10.3345 27.6592 14.5147 25.5617 16.7109C23.464 18.9069 15.9988 26.9999 15.9988 26.9999Z" stroke="#F3805B" stroke-width="1.5" stroke-linecap="round" stroke-linejoin="round"/>
</g>
</svg>
