<svg width="32" height="32" viewBox="0 0 32 32" fill="none" xmlns="http://www.w3.org/2000/svg">
<g clip-path="url(#clip0_221_1623)">
<mask id="mask0_221_1623" style="mask-type:luminance" maskUnits="userSpaceOnUse" x="0" y="0" width="32" height="32">
<path d="M32 0H0V32H32V0Z" fill="white"/>
</mask>
<g mask="url(#mask0_221_1623)">
<path d="M13 23.6667H19C21.2133 23.6667 23 25.4534 23 27.6667V28.3334H9V27.6667C9 25.4534 10.7867 23.6667 13 23.6667Z" stroke="#F3805B" stroke-width="1.5" stroke-linecap="round" stroke-linejoin="round"/>
<path d="M18.6673 16.3334C18.6673 14.8607 17.4734 13.6667 16.0007 13.6667C14.5279 13.6667 13.334 14.8607 13.334 16.3334V17.6667C13.334 19.1395 14.5279 20.3334 16.0007 20.3334C17.4734 20.3334 18.6673 19.1395 18.6673 17.6667V16.3334Z" stroke="#F3805B" stroke-width="1.5" stroke-linejoin="round"/>
<path d="M9.66699 19.6667H3.66699V19C3.66699 16.7867 5.45366 15 7.66699 15H9.66699" stroke="#F3805B" stroke-width="1.5" stroke-linecap="round" stroke-linejoin="round"/>
<path d="M12.3333 7.66667C12.3333 6.19391 11.1394 5 9.66667 5C8.19391 5 7 6.19391 7 7.66667V9C7 10.4728 8.19391 11.6667 9.66667 11.6667C11.1394 11.6667 12.3333 10.4728 12.3333 9V7.66667Z" stroke="#F3805B" stroke-width="1.5" stroke-linejoin="round"/>
<path d="M22.334 19.6667H28.334V19C28.334 16.7867 26.5473 15 24.334 15H22.334" stroke="#F3805B" stroke-width="1.5" stroke-linecap="round" stroke-linejoin="round"/>
<path d="M24.6673 7.66667C24.6673 6.19391 23.4734 5 22.0007 5C20.5279 5 19.334 6.19391 19.334 7.66667V9C19.334 10.4728 20.5279 11.6667 22.0007 11.6667C23.4734 11.6667 24.6673 10.4728 24.6673 9V7.66667Z" stroke="#F3805B" stroke-width="1.5" stroke-linejoin="round"/>
</g>
</g>
<defs>
<clipPath id="clip0_221_1623">
<rect width="32" height="32" fill="white"/>
</clipPath>
</defs>
</svg>
