<svg width="32" height="32" viewBox="0 0 32 32" fill="none" xmlns="http://www.w3.org/2000/svg">
<g clip-path="url(#clip0_221_1642)">
<mask id="mask0_221_1642" style="mask-type:luminance" maskUnits="userSpaceOnUse" x="0" y="0" width="32" height="32">
<path d="M32 0H0V32H32V0Z" fill="white"/>
</mask>
<g mask="url(#mask0_221_1642)">
<path d="M13.667 24.3334V28.3334H22.3337V24.3334H13.667Z" stroke="#F3805B" stroke-width="1.5" stroke-linecap="round" stroke-linejoin="round"/>
<path d="M22.3337 24.3333L22.9737 19.444C23.1543 18.0643 22.2437 16.7776 20.8823 16.4891L17.0003 15.6667V9.83333C17.0003 8.82081 16.1795 8 15.167 8C14.1545 8 13.3337 8.82081 13.3337 9.83333V19.6667L9.80393 18.6285C8.73646 18.3145 7.66699 19.1148 7.66699 20.2275V20.6667L13.667 24.3333" stroke="#F3805B" stroke-width="1.5" stroke-linecap="round" stroke-linejoin="round"/>
<path d="M5.42676 9.66669V9.64002C7.58676 6.05335 11.5201 3.66669 16.0001 3.66669C20.4801 3.66669 24.4267 6.08002 26.5734 9.66669" stroke="#F3805B" stroke-width="1.5" stroke-linecap="round" stroke-linejoin="round"/>
<path d="M8.33333 9.66671H5V6.33337" stroke="#F3805B" stroke-width="1.5" stroke-linecap="round" stroke-linejoin="round"/>
<path d="M23.667 9.66671H27.0003V6.33337" stroke="#F3805B" stroke-width="1.5" stroke-linecap="round" stroke-linejoin="round"/>
</g>
</g>
<defs>
<clipPath id="clip0_221_1642">
<rect width="32" height="32" fill="white"/>
</clipPath>
</defs>
</svg>
