<svg aria-hidden="true" style="position: absolute; width: 0; height: 0; overflow: hidden;" version="1.1" xmlns="http://www.w3.org/2000/svg" xmlns:xlink="http://www.w3.org/1999/xlink">
<defs>
<symbol id="perfect-analytics" viewBox="0 0 32 32">
<path fill="none" stroke="#f3805b" style="stroke: var(--color1, #f3805b)" stroke-linejoin="round" stroke-linecap="round" stroke-miterlimit="4" stroke-width="1.5" d="M6.721 27h1.92c0.707 0 1.28-0.597 1.28-1.333v-7.333c0-0.736-0.573-1.333-1.28-1.333h-1.92c-0.707 0-1.28 0.597-1.28 1.333v7.333c0 0.736 0.573 1.333 1.28 1.333z"></path>
<path fill="none" stroke="#f3805b" style="stroke: var(--color1, #f3805b)" stroke-linejoin="round" stroke-linecap="round" stroke-miterlimit="4" stroke-width="1.5" d="M23.362 26.999h1.92c0.707 0 1.28-0.597 1.28-1.333v-12.667c0-0.736-0.573-1.333-1.28-1.333h-1.92c-0.707 0-1.28 0.597-1.28 1.333v12.667c0 0.736 0.573 1.333 1.28 1.333z"></path>
<path fill="none" stroke="#f3805b" style="stroke: var(--color1, #f3805b)" stroke-linejoin="round" stroke-linecap="round" stroke-miterlimit="4" stroke-width="1.5" d="M15.042 27h1.92c0.707 0 1.28-0.597 1.28-1.333v-18c0-0.736-0.573-1.333-1.28-1.333h-1.92c-0.707 0-1.28 0.597-1.28 1.333v18c0 0.736 0.573 1.333 1.28 1.333z"></path>
</symbol>
<symbol id="perfect-attribution" viewBox="0 0 32 32">
<path fill="none" stroke="#f3805b" style="stroke: var(--color1, #f3805b)" stroke-linejoin="round" stroke-linecap="round" stroke-miterlimit="4" stroke-width="1.5" d="M16.001 28.333c6.811 0 12.333-5.522 12.333-12.333s-5.522-12.333-12.333-12.333-12.333 5.522-12.333 12.333c0 6.811 5.522 12.333 12.333 12.333z"></path>
<path fill="#f3805b" style="fill: var(--color1, #f3805b)" d="M8.775 17.639c-0.391-0.391-0.391-1.024 0-1.414l3.445-3.445c0.5-0.5 1.178-0.781 1.886-0.781h3.791c0.707 0 1.386 0.281 1.886 0.781l3.445 3.445c0.39 0.39 0.39 1.024 0 1.414s-1.024 0.39-1.414 0l-2.243-2.243c-0.21-0.21-0.569-0.061-0.569 0.236v8.7c0 0.552-0.448 1-1 1s-1-0.448-1-1v-5.333c0-0.552-0.448-1-1-1s-1 0.448-1 1v5.333c0 0.552-0.448 1-1 1s-1-0.448-1-1v-8.7c0-0.297-0.359-0.446-0.569-0.236l-2.243 2.243c-0.39 0.39-1.024 0.39-1.414 0z"></path>
<path fill="#f3805b" style="fill: var(--color1, #f3805b)" d="M17.669 8.333c0-0.92-0.746-1.667-1.667-1.667s-1.667 0.746-1.667 1.667v0.667c0 0.92 0.746 1.667 1.667 1.667s1.667-0.746 1.667-1.667v-0.667z"></path>
</symbol>
<symbol id="perfect-book" viewBox="0 0 32 32">
<path fill="none" stroke="#f3805b" style="stroke: var(--color1, #f3805b)" stroke-linejoin="round" stroke-linecap="round" stroke-miterlimit="4" stroke-width="1.5" d="M11.84 9h8.32"></path>
<path fill="none" stroke="#f3805b" style="stroke: var(--color1, #f3805b)" stroke-linejoin="round" stroke-linecap="round" stroke-miterlimit="4" stroke-width="1.5" d="M10.24 21h15.040v7.333h-15.040c-1.946 0-3.52-1.64-3.52-3.667s1.574-3.667 3.52-3.667z"></path>
<path fill="none" stroke="#f3805b" style="stroke: var(--color1, #f3805b)" stroke-linejoin="round" stroke-linecap="round" stroke-miterlimit="4" stroke-width="1.5" d="M6.72 24.667v-17c0-2.209 1.719-4 3.84-4h13.44c0.707 0 1.28 0.597 1.28 1.333v16.333"></path>
</symbol>
<symbol id="perfect-chat" viewBox="0 0 32 32">
<path fill="none" stroke="#f3805b" style="stroke: var(--color1, #f3805b)" stroke-linejoin="round" stroke-linecap="round" stroke-miterlimit="4" stroke-width="1.5" d="M11.839 6.333h8.32c4.237 0 7.68 3.587 7.68 8v3.333c0 4.413-3.443 8-7.68 8h-16v-11.333c0-4.413 3.443-8 7.68-8z"></path>
<path fill="#f3805b" style="fill: var(--color1, #f3805b)" d="M10.88 17.333c0.707 0 1.28-0.597 1.28-1.333s-0.573-1.333-1.28-1.333-1.28 0.597-1.28 1.333c0 0.736 0.573 1.333 1.28 1.333z"></path>
<path fill="#f3805b" style="fill: var(--color1, #f3805b)" d="M17.279 16c0 0.736-0.573 1.333-1.28 1.333s-1.28-0.597-1.28-1.333 0.573-1.333 1.28-1.333c0.707 0 1.28 0.597 1.28 1.333z"></path>
<path fill="#f3805b" style="fill: var(--color1, #f3805b)" d="M21.119 17.333c0.707 0 1.28-0.597 1.28-1.333s-0.573-1.333-1.28-1.333c-0.707 0-1.28 0.597-1.28 1.333s0.573 1.333 1.28 1.333z"></path>
</symbol>
<symbol id="perfect-contacts" viewBox="0 0 32 32">
<path fill="#fff"    d="M25.666 28.002h-19.333c-1.287 0-2.335-1.047-2.335-2.335v-19.333c0-1.287 1.047-2.335 2.335-2.335h19.333c1.288 0 2.335 1.047 2.335 2.335v19.333c0 1.288-1.047 2.335-2.335 2.335zM6.333 6.002c-0.088 0-0.172 0.035-0.234 0.097s-0.097 0.146-0.097 0.234v19.333c0 0.088 0.035 0.172 0.097 0.235s0.147 0.097 0.234 0.097h19.333c0.088-0 0.172-0.035 0.235-0.097s0.097-0.146 0.097-0.235v-19.333c-0-0.088-0.035-0.172-0.097-0.234s-0.147-0.097-0.235-0.097h-19.333z"></path>
<path fill="#fff"   d="M18.666 16h-2.667c-2.027 0-3.667-1.64-3.667-3.667v-0.667c0-2.027 1.64-3.667 3.667-3.667s3.667 1.64 3.667 3.667v3.333c0 0.547-0.453 1-1 1zM16 10c-0.92 0-1.667 0.747-1.667 1.667v0.667c0 0.92 0.747 1.667 1.667 1.667h1.667v-2.333c0-0.92-0.747-1.667-1.667-1.667zM21.666 24h-11.333c-0.547 0-1-0.453-1-1v-0.667c0-2.76 2.24-5 5-5h3.333c2.76 0 5 2.24 5 5v0.667c0 0.547-0.453 1-1 1zM11.346 22h9.293c-0.16-1.493-1.44-2.667-2.987-2.667h-3.333c-1.533 0-2.8 1.173-2.973 2.667z"></path>
</symbol>
<symbol id="perfect-double-up" viewBox="0 0 32 32">
<path fill="none" stroke="#fff" style="stroke: var(--color2, #fff)" stroke-linejoin="round" stroke-linecap="round" stroke-miterlimit="4" stroke-width="2.0645" d="M8.774 16.516l7.226-7.226 7.226 7.226"></path>
<path fill="none" stroke="#fff" style="stroke: var(--color2, #fff)" stroke-linejoin="round" stroke-linecap="round" stroke-miterlimit="4" stroke-width="2.0645" d="M8.774 23.742l7.226-7.226 7.226 7.226"></path>
</symbol>
<symbol id="perfect-exit-room" viewBox="0 0 32 32">
<path fill="none" stroke="#f3805b" style="stroke: var(--color1, #f3805b)" stroke-linejoin="round" stroke-linecap="round" stroke-miterlimit="4" stroke-width="1.5" d="M21.001 28.333h3.333c0.733 0 1.333-0.6 1.333-1.333v-22c0-0.733-0.6-1.333-1.333-1.333h-11.333c-0.733 0-1.333 0.6-1.333 1.333v3.333"></path>
<path fill="none" stroke="#f3805b" style="stroke: var(--color1, #f3805b)" stroke-linejoin="round" stroke-linecap="round" stroke-miterlimit="4" stroke-width="1.5" d="M3.668 24.333h4.333l5.333-9"></path>
<path fill="none" stroke="#f3805b" style="stroke: var(--color1, #f3805b)" stroke-linejoin="round" stroke-linecap="round" stroke-miterlimit="4" stroke-width="1.5" d="M22.336 20.333h-4v-4.667c0-1.473-1.194-2.667-2.667-2.667h-5.667l-3.667 3.333"></path>
<path fill="none" stroke="#f3805b" style="stroke: var(--color1, #f3805b)" stroke-linejoin="round" stroke-linecap="round" stroke-miterlimit="4" stroke-width="1.5" d="M16.333 23.333l-3.333-4.333"></path>
<path fill="none" stroke="#f3805b" style="stroke: var(--color1, #f3805b)" stroke-linejoin="round" stroke-linecap="round" stroke-miterlimit="4" stroke-width="1.5" d="M8 24.333l4.333-5.333"></path>
<path fill="none" stroke="#f3805b" style="stroke: var(--color1, #f3805b)" stroke-linejoin="round" stroke-linecap="round" stroke-miterlimit="4" stroke-width="1.5" d="M16.335 28.332v-5l-2.667-4.333"></path>
<path fill="#f3805b" style="fill: var(--color1, #f3805b); stroke: var(--color1, #f3805b)" stroke="#f3805b" stroke-linejoin="miter" stroke-linecap="butt" stroke-miterlimit="4" stroke-width="1.5" d="M14.001 14.154c0.368-0.638 1.184-0.856 1.821-0.488s0.856 1.184 0.488 1.821l-2.333 4.041-2.309-1.333 2.333-4.041z"></path>
<path fill="#f3805b" style="fill: var(--color1, #f3805b)" d="M21.669 10.043c0.598-1.036 0.243-2.361-0.793-2.96s-2.361-0.243-2.96 0.793l-0.5 0.866c-0.598 1.036-0.243 2.361 0.793 2.96s2.361 0.243 2.96-0.793l0.5-0.866z"></path>
</symbol>
<symbol id="perfect-extension" viewBox="0 0 32 32">
<path fill="none" stroke="#f3805b" style="stroke: var(--color1, #f3805b)" stroke-linejoin="round" stroke-linecap="round" stroke-miterlimit="4" stroke-width="1.5" d="M22.334 18c0 1.747 1.413 3.173 3.173 3.173h1.493v4.493c0 0.733-0.6 1.333-1.333 1.333h-4.507v-1.507c0-1.76-1.4-3.16-3.16-3.16-1.747 0-3.173 1.413-3.173 3.16v1.507h-4.493c-0.733 0-1.333-0.6-1.333-1.333v-4h-1.667c-2.027 0-3.667-1.64-3.667-3.667s1.64-3.667 3.667-3.667h1.667v-4c0-0.733 0.6-1.333 1.333-1.333h4v-1.667c0-2.027 1.64-3.667 3.667-3.667s3.667 1.64 3.667 3.667v1.667h4c0.733 0 1.333 0.6 1.333 1.333v4.493h-1.493c-1.73 0-3.173 1.444-3.173 3.173z"></path>
</symbol>
<symbol id="perfect-favorite-heart" viewBox="0 0 32 32">
<path fill="none" stroke="#f3805b" style="stroke: var(--color1, #f3805b)" stroke-linejoin="round" stroke-linecap="round" stroke-miterlimit="4" stroke-width="1.5" d="M15.999 27c0 0-7.433-8.017-9.59-10.303s-2.143-6.362 0.027-8.634c2.17-2.272 5.711-2.286 7.894-0.028l0.054 0.057c0.57 0.596 0.99 1.307 1.248 2.059 0.258 0.653 0.366 0.866 0.366 0.866s0.108-0.199 0.353-0.866c0.285-0.767 0.705-1.477 1.289-2.102 2.184-2.286 5.738-2.286 7.922 0s2.098 6.467 0 8.663c-2.098 2.196-9.563 10.289-9.563 10.289z"></path>
</symbol>
<symbol id="perfect-groups" viewBox="0 0 32 32">
<path fill="none" stroke="#f3805b" style="stroke: var(--color1, #f3805b)" stroke-linejoin="round" stroke-linecap="round" stroke-miterlimit="4" stroke-width="1.5" d="M13 23.667h6c2.213 0 4 1.787 4 4v0.667h-14v-0.667c0-2.213 1.787-4 4-4z"></path>
<path fill="none" stroke="#f3805b" style="stroke: var(--color1, #f3805b)" stroke-linejoin="round" stroke-linecap="butt" stroke-miterlimit="4" stroke-width="1.5" d="M18.667 16.333c0-1.473-1.194-2.667-2.667-2.667s-2.667 1.194-2.667 2.667v1.333c0 1.473 1.194 2.667 2.667 2.667s2.667-1.194 2.667-2.667v-1.333z"></path>
<path fill="none" stroke="#f3805b" style="stroke: var(--color1, #f3805b)" stroke-linejoin="round" stroke-linecap="round" stroke-miterlimit="4" stroke-width="1.5" d="M9.667 19.667h-6v-0.667c0-2.213 1.787-4 4-4h2"></path>
<path fill="none" stroke="#f3805b" style="stroke: var(--color1, #f3805b)" stroke-linejoin="round" stroke-linecap="butt" stroke-miterlimit="4" stroke-width="1.5" d="M12.333 7.667c0-1.473-1.194-2.667-2.667-2.667s-2.667 1.194-2.667 2.667v1.333c0 1.473 1.194 2.667 2.667 2.667s2.667-1.194 2.667-2.667v-1.333z"></path>
<path fill="none" stroke="#f3805b" style="stroke: var(--color1, #f3805b)" stroke-linejoin="round" stroke-linecap="round" stroke-miterlimit="4" stroke-width="1.5" d="M22.334 19.667h6v-0.667c0-2.213-1.787-4-4-4h-2"></path>
<path fill="none" stroke="#f3805b" style="stroke: var(--color1, #f3805b)" stroke-linejoin="round" stroke-linecap="butt" stroke-miterlimit="4" stroke-width="1.5" d="M24.667 7.667c0-1.473-1.194-2.667-2.667-2.667s-2.667 1.194-2.667 2.667v1.333c0 1.473 1.194 2.667 2.667 2.667s2.667-1.194 2.667-2.667v-1.333z"></path>
</symbol>
<symbol id="perfect-language" viewBox="0 0 32 32">
<path fill="none" stroke="#f3805b" style="stroke: var(--color1, #f3805b)" stroke-linejoin="round" stroke-linecap="round" stroke-miterlimit="4" stroke-width="1.5" d="M18.332 15.666h11.333"></path>
<path fill="none" stroke="#f3805b" style="stroke: var(--color1, #f3805b)" stroke-linejoin="round" stroke-linecap="round" stroke-miterlimit="4" stroke-width="1.5" d="M24 13v2.667"></path>
<path fill="none" stroke="#f3805b" style="stroke: var(--color1, #f3805b)" stroke-linejoin="round" stroke-linecap="round" stroke-miterlimit="4" stroke-width="1.5" d="M18.332 24.333c4.856 0 8.053-4.075 8.053-8.667"></path>
<path fill="none" stroke="#f3805b" style="stroke: var(--color1, #f3805b)" stroke-linejoin="round" stroke-linecap="round" stroke-miterlimit="4" stroke-width="1.5" d="M22.332 19.666c1.227 2.893 4 4.667 7.333 4.667"></path>
<path fill="none" stroke="#f3805b" style="stroke: var(--color1, #f3805b)" stroke-linejoin="round" stroke-linecap="round" stroke-miterlimit="4" stroke-width="1.5" d="M3.172 19l4.198-11.316h2.099l4.198 11.316"></path>
<path fill="none" stroke="#f3805b" style="stroke: var(--color1, #f3805b)" stroke-linejoin="round" stroke-linecap="round" stroke-miterlimit="4" stroke-width="1.5" d="M4.766 14.818h7.295"></path>
<path fill="none" stroke="#f3805b" style="stroke: var(--color1, #f3805b)" stroke-linejoin="round" stroke-linecap="round" stroke-miterlimit="4" stroke-width="1.5" d="M2.332 18.999h2.938"></path>
<path fill="none" stroke="#f3805b" style="stroke: var(--color1, #f3805b)" stroke-linejoin="round" stroke-linecap="round" stroke-miterlimit="4" stroke-width="1.5" d="M11.566 18.999h2.938"></path>
<path fill="none" stroke="#f3805b" style="stroke: var(--color1, #f3805b)" stroke-linejoin="round" stroke-linecap="round" stroke-miterlimit="4" stroke-width="1.5" d="M5.691 7.666h3.778"></path>
</symbol>
<symbol id="perfect-laptop-computer" viewBox="0 0 32 32">
<path fill="none" stroke="#fff" style="stroke: var(--color2, #fff)" stroke-linejoin="round" stroke-linecap="round" stroke-miterlimit="4" stroke-width="1.5" d="M25.667 25.667h-19.333c-1.467 0-2.667-1.2-2.667-2.667v-2.667h8l1.667 1h5.333l1.667-1h8v2.667c0 1.467-1.2 2.667-2.667 2.667z"></path>
<path fill="none" stroke="#fff" style="stroke: var(--color2, #fff)" stroke-linejoin="round" stroke-linecap="round" stroke-miterlimit="4" stroke-width="1.5" d="M6.334 20.333v-12.667c0-0.733 0.6-1.333 1.333-1.333h16.667c0.733 0 1.333 0.6 1.333 1.333v12.667"></path>
</symbol>
<symbol id="" viewBox="0 0 32 32">
<path fill="#fff" style="fill: var(--color2, #fff)" d="M30.145 17.996h-12.677v12h-4.226v-12h-12.677v-4h12.677v-12h4.226v12h12.677v4z"></path>
</symbol>

<symbol id="perfect-plus" viewBox="0 0 40 40">
  <path d="M40 20C40 31.0457 31.0457 40 20 40C8.9543 40 0 31.0457 0 20C0 8.9543 8.9543 0 20 0C31.0457 0 40 8.9543 40 20Z" fill="#F3805B"/>
  <path d="M27 20.998H21V26.998H19V20.998H13V18.998H19V12.998H21V18.998H27V20.998Z" fill="white"/>
</symbol>

<symbol id="perfect-snippet" viewBox="0 0 32 32">
<path fill="none" stroke="#f3805b" style="stroke: var(--color1, #f3805b)" stroke-linejoin="round" stroke-linecap="round" stroke-miterlimit="4" stroke-width="1.5" d="M27 13.667l-8.667-8.667h-12c-0.733 0-1.333 0.6-1.333 1.333v19.333c0 0.733 0.6 1.333 1.333 1.333h19.333c0.733 0 1.333-0.6 1.333-1.333v-12z"></path>
<path fill="none" stroke="#f3805b" style="stroke: var(--color1, #f3805b)" stroke-linejoin="round" stroke-linecap="round" stroke-miterlimit="4" stroke-width="1.5" d="M10.332 16.334h11.333"></path>
<path fill="none" stroke="#f3805b" style="stroke: var(--color1, #f3805b)" stroke-linejoin="round" stroke-linecap="round" stroke-miterlimit="4" stroke-width="1.5" d="M10.332 11.666h6"></path>
<path fill="none" stroke="#f3805b" style="stroke: var(--color1, #f3805b)" stroke-linejoin="round" stroke-linecap="round" stroke-miterlimit="4" stroke-width="1.5" d="M10.332 21h11.333"></path>
</symbol>
<symbol id="perfect-swap-calls" viewBox="0 0 32 32">
<path fill="none" stroke="#f3805b" style="stroke: var(--color1, #f3805b)" stroke-linejoin="round" stroke-linecap="round" stroke-miterlimit="4" stroke-width="1.5" d="M5 8.333l3.333-3.333 3.333 3.333"></path>
<path fill="none" stroke="#f3805b" style="stroke: var(--color1, #f3805b)" stroke-linejoin="round" stroke-linecap="round" stroke-miterlimit="4" stroke-width="1.5" d="M8.332 5.053v16.827c0 2.12 1.707 3.827 3.827 3.827s3.827-1.707 3.827-3.827v-11.72c0-2.12 1.707-3.827 3.827-3.827s3.827 1.707 3.827 3.827v16.347"></path>
<path fill="none" stroke="#f3805b" style="stroke: var(--color1, #f3805b)" stroke-linejoin="round" stroke-linecap="round" stroke-miterlimit="4" stroke-width="1.5" d="M26.999 23.666l-3.333 3.333-3.333-3.333"></path>
</symbol>
<symbol id="perfect-swipe" viewBox="0 0 32 32">
<path fill="none" stroke="#f3805b" style="stroke: var(--color1, #f3805b)" stroke-linejoin="round" stroke-linecap="round" stroke-miterlimit="4" stroke-width="1.5" d="M13.667 24.333v4h8.667v-4h-8.667z"></path>
<path fill="none" stroke="#f3805b" style="stroke: var(--color1, #f3805b)" stroke-linejoin="round" stroke-linecap="round" stroke-miterlimit="4" stroke-width="1.5" d="M22.334 24.333l0.64-4.889c0.181-1.38-0.73-2.666-2.091-2.955l-3.882-0.822v-5.833c0-1.013-0.821-1.833-1.833-1.833s-1.833 0.821-1.833 1.833v9.833l-3.53-1.038c-1.067-0.314-2.137 0.486-2.137 1.599v0.439l6 3.667"></path>
<path fill="none" stroke="#f3805b" style="stroke: var(--color1, #f3805b)" stroke-linejoin="round" stroke-linecap="round" stroke-miterlimit="4" stroke-width="1.5" d="M5.427 9.667v-0.027c2.16-3.587 6.093-5.973 10.573-5.973s8.427 2.413 10.573 6"></path>
<path fill="none" stroke="#f3805b" style="stroke: var(--color1, #f3805b)" stroke-linejoin="round" stroke-linecap="round" stroke-miterlimit="4" stroke-width="1.5" d="M8.333 9.667h-3.333v-3.333"></path>
<path fill="none" stroke="#f3805b" style="stroke: var(--color1, #f3805b)" stroke-linejoin="round" stroke-linecap="round" stroke-miterlimit="4" stroke-width="1.5" d="M23.667 9.667h3.333v-3.333"></path>
</symbol>
<symbol id="perfect-verified" viewBox="0 0 32 32">
<path fill="none" stroke="#fff" style="stroke: var(--color2, #fff)" stroke-linejoin="round" stroke-linecap="butt" stroke-miterlimit="4" stroke-width="1.5" d="M5 8.333c0 0 8.333-1.667 11-3.333 2.667 1.667 11.002 3.333 11.002 3.333-1.215 8.12-3.948 14.133-11.002 18.667-7-4.533-10.133-10.547-11-18.667z"></path>
<path fill="none" stroke="#fff" style="stroke: var(--color2, #fff)" stroke-linejoin="round" stroke-linecap="round" stroke-miterlimit="4" stroke-width="1.5" d="M22 12l-7 7-3.333-3.333"></path>
</symbol>
</defs>
</svg>
